<svg width="111" height="18" viewBox="0 0 111 18" fill="none" xmlns="http://www.w3.org/2000/svg">
<path d="M5.66 15.24C3.51333 15.24 1.64667 14.8067 0.06 13.94V9.06H0.4C1.81333 10.54 3.66667 11.28 5.96 11.28C7.12 11.28 7.7 11 7.7 10.44C7.7 10.2267 7.50667 10.04 7.12 9.88C6.74667 9.72 6.27333 9.59333 5.7 9.5C5.12667 9.39333 4.50667 9.23333 3.84 9.02C3.18667 8.80667 2.57333 8.56667 2 8.3C1.42667 8.02 0.946667 7.61333 0.56 7.08C0.186667 6.53333 0 5.89333 0 5.16C0 3.78667 0.58 2.71333 1.74 1.94C2.9 1.15333 4.29333 0.760001 5.92 0.760001C7.97333 0.760001 9.77333 1.32 11.32 2.44V6.72H11.04C10.3733 6.05333 9.56 5.52 8.6 5.12C7.64 4.70667 6.66667 4.5 5.68 4.5C4.50667 4.5 3.92 4.77333 3.92 5.32C3.92 5.6 4.19333 5.82667 4.74 6C5.28667 6.16 5.94667 6.31333 6.72 6.46C7.50667 6.59333 8.28667 6.78 9.06 7.02C9.84667 7.24667 10.5133 7.65333 11.06 8.24C11.6067 8.82667 11.88 9.56667 11.88 10.46C11.88 12.0467 11.3267 13.24 10.22 14.04C9.12667 14.84 7.60667 15.24 5.66 15.24Z" fill="#191A1D"/>
<path d="M13.3391 15V3H17.5991L16.8791 9.82H17.0791C17.3191 7.26 17.7924 5.44667 18.4991 4.38C19.2057 3.3 20.2657 2.76 21.6791 2.76C24.2391 2.76 25.5191 4.56 25.5191 8.16V15H21.3391V10.42C21.3391 9.94 21.3191 9.53333 21.2791 9.2C21.2391 8.85333 21.1657 8.51333 21.0591 8.18C20.9524 7.84667 20.7857 7.59333 20.5591 7.42C20.3324 7.24667 20.0457 7.16 19.6991 7.16C19.3124 7.16 18.9791 7.26 18.6991 7.46C18.4324 7.64667 18.2191 7.88667 18.0591 8.18C17.9124 8.47333 17.7924 8.87333 17.6991 9.38C17.6191 9.88667 17.5657 10.3667 17.5391 10.82C17.5257 11.2733 17.5191 11.84 17.5191 12.52V15H13.3391Z" fill="#191A1D"/>
<path d="M30.8408 15.24C29.7208 15.24 28.7874 14.96 28.0408 14.4C27.2941 13.8267 26.9208 12.9667 26.9208 11.82C26.9208 11.1133 27.0808 10.5 27.4008 9.98C27.7341 9.46 28.1874 9.06 28.7608 8.78C29.3341 8.48667 29.9541 8.27333 30.6208 8.14C31.2874 8.00667 32.0074 7.94 32.7808 7.94C33.6341 7.94 34.4141 7.99333 35.1208 8.1V7.92C34.8808 7.04 33.9941 6.6 32.4608 6.6C31.7274 6.6 30.9808 6.73333 30.2208 7C29.4741 7.25333 28.8341 7.58667 28.3008 8H28.0408V3.92C29.4941 3.14667 31.1474 2.76 33.0008 2.76C34.9341 2.76 36.4608 3.28667 37.5808 4.34C38.7008 5.38 39.2608 6.75333 39.2608 8.46V15H35.1808V14.64L35.7208 9.6H35.5008C35.4474 11.4667 35.0141 12.8733 34.2008 13.82C33.3874 14.7667 32.2674 15.24 30.8408 15.24ZM30.8408 11.08C30.8408 11.4533 30.9741 11.74 31.2408 11.94C31.5208 12.1267 31.8741 12.22 32.3008 12.22C33.0074 12.22 33.5741 11.9867 34.0008 11.52C34.4408 11.04 34.6941 10.3933 34.7608 9.58H33.6008C31.7608 9.58 30.8408 10.08 30.8408 11.08Z" fill="#191A1D"/>
<path d="M41.0077 18V3H45.2077L44.8077 7.12H44.9677C45.101 6.29333 45.3143 5.58667 45.6077 5C45.901 4.4 46.2477 3.94667 46.6477 3.64C47.0477 3.33333 47.4543 3.11333 47.8677 2.98C48.281 2.83333 48.7143 2.76 49.1677 2.76C50.6743 2.76 51.8677 3.34667 52.7477 4.52C53.641 5.69333 54.0877 7.18 54.0877 8.98C54.0877 10.7667 53.641 12.26 52.7477 13.46C51.8677 14.6467 50.6743 15.24 49.1677 15.24C48.7143 15.24 48.3077 15.2067 47.9477 15.14C47.601 15.0733 47.2343 14.94 46.8477 14.74C46.4743 14.54 46.1543 14.2733 45.8877 13.94C45.621 13.6067 45.3943 13.1467 45.2077 12.56C45.021 11.9733 44.901 11.2867 44.8477 10.5H44.6077L45.0477 13.4V18H41.0077ZM44.5477 8.9C44.5477 9.66 44.8077 10.2333 45.3277 10.62C45.8477 11.0067 46.5277 11.2 47.3677 11.2C48.2077 11.2 48.8877 11.0067 49.4077 10.62C49.9277 10.2333 50.1877 9.66 50.1877 8.9C50.1877 8.15333 49.9277 7.58667 49.4077 7.2C48.8877 6.81333 48.2077 6.62 47.3677 6.62C46.541 6.62 45.861 6.82 45.3277 7.22C44.8077 7.60667 44.5477 8.16667 44.5477 8.9Z" fill="#191A1D"/>
<path d="M61.1144 15.24C58.9677 15.24 57.101 14.8067 55.5144 13.94V9.06H55.8544C57.2677 10.54 59.121 11.28 61.4144 11.28C62.5744 11.28 63.1544 11 63.1544 10.44C63.1544 10.2267 62.961 10.04 62.5744 9.88C62.201 9.72 61.7277 9.59333 61.1544 9.5C60.581 9.39333 59.961 9.23333 59.2944 9.02C58.641 8.80667 58.0277 8.56667 57.4544 8.3C56.881 8.02 56.401 7.61333 56.0144 7.08C55.641 6.53333 55.4544 5.89333 55.4544 5.16C55.4544 3.78667 56.0344 2.71333 57.1944 1.94C58.3544 1.15333 59.7477 0.760001 61.3744 0.760001C63.4277 0.760001 65.2277 1.32 66.7744 2.44V6.72H66.4944C65.8277 6.05333 65.0144 5.52 64.0544 5.12C63.0944 4.70667 62.121 4.5 61.1344 4.5C59.961 4.5 59.3744 4.77333 59.3744 5.32C59.3744 5.6 59.6477 5.82667 60.1944 6C60.741 6.16 61.401 6.31333 62.1744 6.46C62.961 6.59333 63.741 6.78 64.5144 7.02C65.301 7.24667 65.9677 7.65333 66.5144 8.24C67.061 8.82667 67.3344 9.56667 67.3344 10.46C67.3344 12.0467 66.781 13.24 65.6744 14.04C64.581 14.84 63.061 15.24 61.1144 15.24Z" fill="#191A1D"/>
<path d="M68.7934 15V0H73.0534L72.3334 9.82H72.5334C72.7734 7.26 73.2468 5.44667 73.9534 4.38C74.6601 3.3 75.7201 2.76 77.1334 2.76C79.6934 2.76 80.9734 4.56 80.9734 8.16V15H76.7934V10.42C76.7934 9.94 76.7734 9.52667 76.7334 9.18C76.6934 8.83333 76.6201 8.5 76.5134 8.18C76.4068 7.84667 76.2401 7.59333 76.0134 7.42C75.7868 7.24667 75.5001 7.16 75.1534 7.16C74.6734 7.16 74.2801 7.29333 73.9734 7.56C73.6801 7.82667 73.4601 8.23333 73.3134 8.78C73.1801 9.32667 73.0868 9.88 73.0334 10.44C72.9934 10.9867 72.9734 11.68 72.9734 12.52V15H68.7934Z" fill="#191A1D"/>
<path d="M89.0952 15.24C87.1085 15.24 85.5085 14.6467 84.2952 13.46C83.0818 12.2733 82.4752 10.7933 82.4752 9.02C82.4752 7.24667 83.0818 5.76 84.2952 4.56C85.5085 3.36 87.1085 2.76 89.0952 2.76C91.0552 2.76 92.6485 3.36667 93.8752 4.58C95.1018 5.78 95.7152 7.26 95.7152 9.02C95.7152 10.7933 95.1085 12.2733 93.8952 13.46C92.6952 14.6467 91.0952 15.24 89.0952 15.24ZM87.0552 7.34C86.5218 7.72667 86.2552 8.28667 86.2552 9.02C86.2552 9.75333 86.5218 10.32 87.0552 10.72C87.5885 11.12 88.2685 11.32 89.0952 11.32C89.9218 11.32 90.6018 11.12 91.1352 10.72C91.6818 10.32 91.9552 9.75333 91.9552 9.02C91.9552 8.28667 91.6885 7.72667 91.1552 7.34C90.6218 6.94 89.9352 6.74 89.0952 6.74C88.2685 6.74 87.5885 6.94 87.0552 7.34Z" fill="#191A1D"/>
<path d="M97.2042 18V3H101.404L101.004 7.12H101.164C101.298 6.29333 101.511 5.58667 101.804 5C102.098 4.4 102.444 3.94667 102.844 3.64C103.244 3.33333 103.651 3.11333 104.064 2.98C104.478 2.83333 104.911 2.76 105.364 2.76C106.871 2.76 108.064 3.34667 108.944 4.52C109.838 5.69333 110.284 7.18 110.284 8.98C110.284 10.7667 109.838 12.26 108.944 13.46C108.064 14.6467 106.871 15.24 105.364 15.24C104.911 15.24 104.504 15.2067 104.144 15.14C103.798 15.0733 103.431 14.94 103.044 14.74C102.671 14.54 102.351 14.2733 102.084 13.94C101.818 13.6067 101.591 13.1467 101.404 12.56C101.218 11.9733 101.098 11.2867 101.044 10.5H100.804L101.244 13.4V18H97.2042ZM100.744 8.9C100.744 9.66 101.004 10.2333 101.524 10.62C102.044 11.0067 102.724 11.2 103.564 11.2C104.404 11.2 105.084 11.0067 105.604 10.62C106.124 10.2333 106.384 9.66 106.384 8.9C106.384 8.15333 106.124 7.58667 105.604 7.2C105.084 6.81333 104.404 6.62 103.564 6.62C102.738 6.62 102.058 6.82 101.524 7.22C101.004 7.60667 100.744 8.16667 100.744 8.9Z" fill="#191A1D"/>
</svg>
